REM MD5 548c19ab55d698b7a2d23f376c955850
FILE "Brave Fencer Musashiden (Japan) (Demo).bin" BINARY
  TRACK 01 MODE2/2352
    INDEX 01 00:00:00
  TRACK 02 AUDIO
    INDEX 00 36:42:08
    INDEX 01 36:44:08
  TRACK 03 AUDIO
    INDEX 00 37:42:48
    INDEX 01 37:44:48
  TRACK 04 AUDIO
    INDEX 00 38:24:14
    INDEX 01 38:26:14
REM LEADOUT 41:32:16
